<svg width="46" height="47" viewBox="0 0 46 47" fill="none" xmlns="http://www.w3.org/2000/svg">
<path d="M30.511 8.82715C25.6889 8.82715 21.776 11.3461 21.776 14.4517C21.776 17.5581 25.6889 20.0763 30.511 20.0763V8.82715Z" fill="#3F5AA1"/>
<path d="M30.511 20.0756C35.336 20.0756 39.246 17.5567 39.246 14.451C39.246 11.3446 35.336 8.82715 30.511 8.82715V20.0756Z" fill="#EE4237"/>
<path d="M44.4021 27.1542C44.4021 28.0971 43.6057 28.8652 42.6196 28.8652H6.78345C5.79732 28.8652 4.99951 28.0986 4.99951 27.1542L14.7371 16.4176C15.6593 15.377 16.7899 14.708 17.7767 14.708L42.3364 13.9861C43.3204 13.9861 44.1182 14.7528 44.1182 15.6972L44.4043 27.1542" fill="#D1D2D2"/>
<path d="M23.9416 15.988L19.8102 16.0468C19.0469 16.0468 17.5339 16.5138 16.8195 17.235L9.91516 24.7036C9.91516 25.3623 10.534 25.8948 11.2973 25.8948H23.915L23.9416 15.988Z" fill="#A2C2CA"/>
<path d="M44.7493 32.4521C44.7493 35.9382 42.7167 38.7662 40.2068 38.7662H5.87499C3.36655 38.7662 1.33105 35.9374 1.33105 32.4521C1.33105 28.9667 3.36655 26.1401 5.87499 26.1401H40.2054C42.7167 26.1401 44.7493 28.966 44.7493 32.4521Z" fill="#919396"/>
<path d="M45.8201 35.0039C45.8201 37.0792 43.6725 38.7632 41.0232 38.7632H4.79819C2.15031 38.7632 0.00268555 37.0792 0.00268555 35.0039C0.00268555 32.9271 2.15031 31.2454 4.79819 31.2454H41.0232C43.6725 31.2454 45.8201 32.9271 45.8201 35.0039Z" fill="#D1D2D2"/>
<path d="M40.8933 28.8242H4.66829C3.57866 28.8242 2.58679 29.1202 1.7861 29.6019C1.40696 30.5525 1.21028 31.5687 1.20679 32.5952C2.07863 31.8777 3.3041 31.4261 4.66972 31.4261H40.8947C42.4012 31.4261 43.7259 31.9798 44.6063 32.8295C44.6063 32.7605 44.62 32.698 44.62 32.6305C44.62 31.6347 44.4389 30.705 44.1442 29.867C43.2903 29.2333 42.1662 28.8242 40.8969 28.8242" fill="#DF394C"/>
<path d="M15.3302 38.7632C15.3302 41.8131 12.9044 44.2924 9.9115 44.2924C6.92509 44.2924 4.50147 41.8131 4.50147 38.7632C4.50128 38.0372 4.64106 37.3181 4.91284 36.6472C5.18462 35.9763 5.58306 35.3667 6.08543 34.8531C6.5878 34.3396 7.18425 33.9322 7.84073 33.6541C8.4972 33.3761 9.20085 33.2329 9.9115 33.2327C10.6228 33.232 11.3272 33.3745 11.9846 33.6522C12.6419 33.9298 13.2393 34.3371 13.7425 34.8507C14.2457 35.3643 14.645 35.9742 14.9174 36.6455C15.1898 37.3169 15.3301 38.0365 15.3302 38.7632Z" fill="white"/>
<path d="M41.3424 38.7015C41.3192 40.1529 40.7387 41.5368 39.726 42.5548C38.7132 43.5729 37.3495 44.1434 35.9288 44.1434C34.5081 44.1434 33.1443 43.5729 32.1316 42.5548C31.1188 41.5368 30.5383 40.1529 30.5151 38.7015C30.5151 37.2345 31.0855 35.8276 32.1007 34.7903C33.116 33.7529 34.493 33.1702 35.9288 33.1702C37.3645 33.1702 38.7415 33.7529 39.7568 34.7903C40.772 35.8276 41.3424 37.2345 41.3424 38.7015Z" fill="white"/>
<path d="M14.3693 38.7633C14.3437 39.9524 13.8634 41.0841 13.0312 41.9158C12.199 42.7476 11.0812 43.2133 9.91701 43.2133C8.75287 43.2133 7.63501 42.7476 6.80284 41.9158C5.97066 41.0841 5.49033 39.9524 5.46471 38.7633C5.45723 38.161 5.56685 37.5632 5.78724 37.0046C6.00763 36.446 6.33439 35.9376 6.74857 35.509C7.16275 35.0804 7.6561 34.7401 8.2 34.5079C8.7439 34.2756 9.32752 34.156 9.91701 34.156C10.5065 34.156 11.0901 34.2756 11.634 34.5079C12.1779 34.7401 12.6713 35.0804 13.0855 35.509C13.4996 35.9376 13.8264 36.446 14.0468 37.0046C14.2672 37.5632 14.3768 38.161 14.3693 38.7633Z" fill="#243438"/>
<path d="M12.8008 38.7C12.8017 39.2837 12.633 39.8545 12.3162 40.3401C11.9993 40.8258 11.5486 41.2045 11.0209 41.4283C10.4933 41.6521 9.91259 41.7108 9.35226 41.5972C8.79193 41.4835 8.27721 41.2025 7.87327 40.7898C7.46933 40.3771 7.19433 39.8512 7.08309 39.2787C6.97185 38.7062 7.02937 38.1128 7.24838 37.5737C7.46739 37.0346 7.83803 36.5741 8.31337 36.2503C8.78871 35.9266 9.34738 35.7543 9.91864 35.7551C10.2976 35.7546 10.673 35.8304 11.0233 35.9782C11.3736 36.1259 11.6919 36.3427 11.9603 36.6161C12.2286 36.8896 12.4415 37.2144 12.587 37.5719C12.7324 37.9295 12.8075 38.3128 12.808 38.7" fill="#969796"/>
<path d="M40.3793 38.7632C40.3644 39.9597 39.8888 41.102 39.0555 41.9427C38.2221 42.7834 37.0981 43.2548 35.927 43.2548C34.7559 43.2548 33.6319 42.7834 32.7986 41.9427C31.9652 41.102 31.4896 39.9597 31.4747 38.7632C31.4747 37.5567 31.9438 36.3996 32.7788 35.5465C33.6137 34.6934 34.7462 34.2141 35.927 34.2141C37.1079 34.2141 38.2403 34.6934 39.0753 35.5465C39.9102 36.3996 40.3793 37.5567 40.3793 38.7632Z" fill="#243438"/>
<path d="M38.8125 38.7C38.8125 39.4829 38.5081 40.2338 37.9662 40.7875C37.4244 41.3411 36.6894 41.6522 35.9231 41.6522C35.1578 41.6522 34.4238 41.3415 33.8826 40.7886C33.3414 40.2356 33.0374 39.4856 33.0374 38.7036C33.0374 37.9217 33.3414 37.1717 33.8826 36.6187C34.4238 36.0658 35.1578 35.7551 35.9231 35.7551C36.3021 35.7546 36.6775 35.8303 37.0279 35.978C37.3782 36.1257 37.6966 36.3424 37.965 36.6159C38.2333 36.8894 38.4462 37.2142 38.5917 37.5718C38.7371 37.9294 38.8121 38.3127 38.8125 38.7Z" fill="#969796"/>
<path d="M2.80811 30.8584C2.80811 32.502 2.3287 33.8371 1.73573 33.8371C1.14492 33.8371 0.664795 32.5027 0.664795 30.8584V30.7916C0.664795 29.1466 1.14492 27.8145 1.73573 27.8145C2.32942 27.8145 2.80811 29.1459 2.80811 30.7916V30.8584Z" fill="#E3E4E3"/>
<path d="M45.8203 31.2786C45.8203 32.9214 45.3394 34.2543 44.7479 34.2543C44.1571 34.2543 43.6755 32.9221 43.6755 31.2786V31.2096C43.6755 29.5631 44.1571 28.2324 44.7479 28.2324C45.3394 28.2324 45.8203 29.5631 45.8203 31.2096V31.2786Z" fill="#DF394C"/>
<path d="M18.7162 24.3812C18.8873 21.2072 20.2026 18.4254 22.0405 15.9998L19.7721 16.0313C19.0088 16.0313 17.4951 16.4984 16.7814 17.2196L9.87561 24.6881C9.87561 25.3469 10.4945 25.8793 11.257 25.8793H18.7371C18.7001 25.3808 18.6932 24.8805 18.7162 24.3812Z" fill="#83AFB7"/>
<path d="M30.4246 21.451H40.7416C40.8242 21.451 40.9019 21.4356 40.9019 21.4158V19.8986V19.0305C40.9019 19.0107 40.8257 18.9953 40.7416 18.9953H30.4246C30.3897 18.9944 30.3548 18.9971 30.3204 19.0034L30.3175 19.0048H30.3132C30.2909 19.0056 30.2679 19.0203 30.2679 19.0305V21.4158C30.2701 21.4356 30.3413 21.451 30.4246 21.451Z" fill="#DF394C"/>
<path d="M34.3792 19.0864V25.2118C34.3792 25.2618 34.3942 25.3058 34.4151 25.3058H36.7525C36.7719 25.3058 36.7898 25.2618 36.7898 25.2118V21.4673V19.0864C36.7898 19.0657 36.7856 19.0452 36.7776 19.0262V19.0203C36.7709 19.0132 36.7646 19.0056 36.7589 18.9976H34.4151C34.395 18.9976 34.3792 19.0372 34.3792 19.0864Z" fill="#DF394C"/>
<path d="M34.3792 15.2383V21.3622C34.3792 21.4107 34.3942 21.4548 34.4151 21.4548H36.7525C36.7719 21.4548 36.7898 21.4107 36.7898 21.3622V17.6177V15.2383C36.7899 15.2168 36.7857 15.1956 36.7776 15.1759V15.1693C36.7703 15.1627 36.764 15.155 36.7589 15.1465H34.4151C34.395 15.1465 34.3792 15.1869 34.3792 15.2383Z" fill="#DF394C"/>
</svg>
