<svg width="48" height="47" viewBox="0 0 48 47" fill="none" xmlns="http://www.w3.org/2000/svg">
<path d="M29.3991 29.312L21.7445 36.9666C18.8084 39.9092 14.0639 40.0129 10.9982 37.2842C16.8056 37.3361 16.4426 37.7055 27.1176 27.0305L29.3991 29.312Z" fill="#D22F27"/>
<path d="M27.1176 27.0304C16.4426 37.7054 16.8056 37.3359 10.9982 37.2841C10.1708 36.5489 9.50887 35.6465 9.05634 34.6364C8.60382 33.6263 8.37096 32.5316 8.37318 31.4248C8.37318 29.4156 9.138 27.4063 10.6611 25.8831L18.3158 18.2285L27.1176 27.0304Z" fill="#EA5A47"/>
<path d="M37.514 10.1202C36.7278 9.32965 35.7924 8.70315 34.7621 8.27702C33.7318 7.85088 32.6271 7.63359 31.5122 7.63775C29.2372 7.63775 27.1048 8.51924 25.5103 10.1202L17.3955 18.2285L29.3992 30.2322L37.5075 22.1174C39.1085 20.5229 39.99 18.3905 39.99 16.1155C39.99 13.847 39.1085 11.7146 37.514 10.1202ZM37.0538 21.6572L29.3992 29.3118L27.1177 27.0303L27.9668 26.1813C38.1557 15.9924 33.6511 9.94516 31.9918 8.29886C33.839 8.41553 35.6538 9.17386 37.0538 10.5739C37.7811 11.3016 38.3576 12.1657 38.7502 13.1166C39.1429 14.0676 39.3439 15.0867 39.3418 16.1155C39.3418 18.1248 38.577 20.1341 37.0538 21.6572Z" fill="#92D3F5"/>
<path d="M37.9677 9.66012C36.2501 7.93604 33.9556 6.98975 31.5121 6.98975C29.0621 6.98975 26.7677 7.93604 25.0501 9.66012L16.4816 18.2286L17.3955 19.149L28.4788 30.2323L29.3992 31.1462L37.9677 22.5777C39.6918 20.8536 40.638 18.5592 40.638 16.1157C40.638 13.6722 39.6918 11.3777 37.9677 9.66012ZM29.3992 29.312L27.1177 27.0305L18.3158 18.2286L25.9705 10.574C26.6981 9.84671 27.5622 9.27022 28.5132 8.8776C29.4642 8.48497 30.4833 8.28395 31.5121 8.28604C31.6742 8.28604 31.8297 8.29252 31.9918 8.299C33.839 8.41567 35.6538 9.174 37.0538 10.574C37.7811 11.3017 38.3576 12.1658 38.7502 13.1168C39.1428 14.0677 39.3438 15.0868 39.3417 16.1157C39.3417 18.1249 38.5769 20.1342 37.0538 21.6573L29.3992 29.312Z" fill="#92D3F5"/>
<path d="M39.3418 16.1157C39.3418 18.125 38.5769 20.1343 37.0538 21.6574L29.3992 29.312L27.1177 27.0306L27.9667 26.1815C38.1556 15.9926 33.651 9.94537 31.9918 8.29907C33.839 8.41574 35.6538 9.17407 37.0538 10.5741C37.7811 11.3018 38.3576 12.1659 38.7502 13.1168C39.1428 14.0678 39.3438 15.0869 39.3418 16.1157Z" fill="#61B2E4"/>
<path d="M29.1963 24.9111L31.8576 27.5731L28.8496 30.5811L26.1876 27.9198L29.1963 24.9111Z" fill="#61B2E4"/>
<path d="M31.5109 8.28873C33.5202 8.28873 35.5294 9.05095 37.0539 10.5754C40.1021 13.6236 40.1021 18.6124 37.0539 21.6613L21.7446 36.9706C21.0167 37.6978 20.1523 38.274 19.2011 38.6663C18.2499 39.0586 17.2306 39.2592 16.2017 39.2566C14.1924 39.2566 12.1832 38.4944 10.6587 36.9699C7.61047 33.9217 7.61047 28.9329 10.6587 25.884L25.968 10.5747C26.6959 9.84756 27.5603 9.27128 28.5115 8.87899C29.4627 8.48669 30.482 8.2861 31.5109 8.28873ZM31.5109 6.99243C29.0648 6.99243 26.7704 7.93938 25.0515 9.65891L9.74223 24.9682C6.18065 28.5291 6.18065 34.3248 9.74223 37.8864C11.4618 39.606 13.7556 40.5529 16.2017 40.5529C18.6478 40.5529 20.9422 39.606 22.6611 37.8864L37.9704 22.5772C41.532 19.0162 41.532 13.2205 37.9704 9.65891C36.2508 7.93938 33.957 6.99243 31.5109 6.99243Z" fill="black"/>
<path d="M19.1798 20.041L27.5143 28.3762" stroke="black" stroke-width="0.5" stroke-miterlimit="10" stroke-linecap="round"/>
</svg>
