<svg width="46" height="46" viewBox="0 0 46 46" fill="none" xmlns="http://www.w3.org/2000/svg">
<path d="M20.6388 33.767L10.5404 27.9379C10.3463 27.8265 10.2817 27.5821 10.3931 27.3881L10.9645 26.3998C11.0759 26.2057 11.3203 26.141 11.5143 26.2524L21.6128 32.0815C21.8068 32.1929 21.8715 32.4373 21.7601 32.6313L21.1887 33.6196C21.0773 33.8137 20.8293 33.8784 20.6388 33.767Z" fill="#4EC3E4"/>
<path d="M14.2311 34.4318C13.268 36.5952 15.3093 40.1889 18.2921 40.3039C17.9327 40.3183 14.2958 40.6525 13.9832 40.4729C11.6041 39.1072 12.2797 34.8127 12.9949 33.9502L14.2311 34.4318Z" fill="#78A1AB"/>
<path d="M18.896 33.6231C23.6146 37.4181 27.981 38.2052 31.1722 37.508C31.3232 37.4756 30.5793 33.3536 31.1722 31.8945C26.0116 35.3302 19.4063 32.6528 19.4063 32.6528L18.896 33.6231Z" fill="#78A1AB"/>
<path d="M27.2586 14.3569L25.9504 16.0747C33.6662 20.0782 33.1954 27.3807 29.6736 32.0023V34.1693H35.1217C40.0631 26.0833 36.3867 16.8797 27.2586 14.3569Z" fill="#757575"/>
<path d="M15.6796 27.0538L17.3111 27.9917C17.5124 28.1067 17.7711 28.0456 17.9005 27.8516L20.6138 24.2542L17.2464 22.3208L15.5071 26.4752C15.3993 26.6836 15.4783 26.9388 15.6796 27.0538Z" fill="#424242"/>
<path d="M13.6708 23.2263L13.1461 21.5876C13.0814 21.3863 13.1856 21.1671 13.3833 21.0916L17.1136 19.363L18.1917 22.7412L14.1488 23.4958C13.9475 23.5462 13.7355 23.4312 13.6708 23.2263Z" fill="#757575"/>
<path d="M27.8731 2.48145L32.4857 5.14441L29.4023 10.4847L24.79 7.82176L27.8731 2.48145Z" fill="#78A1AB"/>
<path d="M33.0588 5.72134L27.1579 2.31446C26.9796 2.21067 26.8496 2.0405 26.7964 1.84117C26.7432 1.64184 26.7711 1.42955 26.874 1.25071C27.0896 0.880559 27.5676 0.751184 27.9377 0.966808L33.8422 4.37368C34.2124 4.58931 34.3418 5.06728 34.1261 5.43743C34.0217 5.61605 33.8509 5.74613 33.651 5.79931C33.451 5.8525 33.2382 5.82447 33.0588 5.72134Z" fill="#2E2F2F"/>
<path d="M24.732 22.3999L16.8042 17.8251L22.6764 7.65476C22.9279 7.21992 23.485 7.06898 23.9198 7.32055L30.2736 10.9898C30.7084 11.2413 30.8594 11.7984 30.6078 12.2332L24.732 22.3999Z" fill="#E4E3DE"/>
<path d="M18.4862 24.0637C20.6748 25.3287 23.4743 24.5776 24.7393 22.389L16.8115 17.8105C15.5465 19.9991 16.2976 22.7987 18.4862 24.0637Z" fill="#BDBDBD"/>
<path d="M19.974 27.9485L21.7529 27.9378C21.9722 27.9378 22.1554 27.7653 22.1662 27.546L22.6765 23.3234C22.2273 22.6406 19.5033 22.655 19.0073 23.3414L19.5608 27.5604C19.5715 27.7796 19.7548 27.9485 19.974 27.9485Z" fill="#757575"/>
<path d="M28.387 19.4744C30.2646 19.4744 31.7867 17.9523 31.7867 16.0747C31.7867 14.1971 30.2646 12.675 28.387 12.675C26.5094 12.675 24.9873 14.1971 24.9873 16.0747C24.9873 17.9523 26.5094 19.4744 28.387 19.4744Z" fill="#3F3F3F"/>
<path d="M28.3869 17.6813C29.2741 17.6813 29.9933 16.9621 29.9933 16.0749C29.9933 15.1877 29.2741 14.4685 28.3869 14.4685C27.4997 14.4685 26.7805 15.1877 26.7805 16.0749C26.7805 16.9621 27.4997 17.6813 28.3869 17.6813Z" fill="#EEEEEE"/>
<path d="M39.2437 43.276H6.75622C6.31874 43.276 5.89917 43.1022 5.58983 42.7929C5.28048 42.4835 5.10669 42.064 5.10669 41.6265V40.7352C5.10669 40.2977 5.28048 39.8782 5.58983 39.5688C5.89917 39.2595 6.31874 39.0857 6.75622 39.0857H39.2437C39.6812 39.0857 40.1008 39.2595 40.4101 39.5688C40.7195 39.8782 40.8932 40.2977 40.8932 40.7352V41.6265C40.8932 42.064 40.7195 42.4835 40.4101 42.7929C40.1008 43.1022 39.6812 43.276 39.2437 43.276Z" fill="#757575"/>
<path d="M11.076 44.9578H9.10303C8.70771 44.9578 8.38428 44.6343 8.38428 44.239V43.2759H11.7947V44.239C11.7947 44.6343 11.4713 44.9578 11.076 44.9578Z" fill="#616161"/>
<path d="M36.9007 44.9578H34.9277C34.5324 44.9578 34.209 44.6343 34.209 44.239V43.2759H37.6195V44.239C37.6195 44.6343 37.296 44.9578 36.9007 44.9578Z" fill="#616161"/>
<path d="M14.0085 39.0822C18.0515 39.0822 22.5581 38.0759 27.0359 35.1362C28.4626 34.1983 30.7806 31.5533 31.9989 31.7114C32.9907 31.8372 33.9107 31.7833 35.6106 35.262C36.4228 36.9259 37.7704 38.6617 39.2439 39.0822C37.6195 41.1342 15.3562 41.1773 14.0085 39.0822Z" fill="#757575"/>
<path d="M31.7868 37.8566C33.8232 37.8566 35.474 36.2057 35.474 34.1694C35.474 32.133 33.8232 30.4822 31.7868 30.4822C29.7504 30.4822 28.0996 32.133 28.0996 34.1694C28.0996 36.2057 29.7504 37.8566 31.7868 37.8566Z" fill="#3F3F3F"/>
<path d="M31.8049 36.0058C32.8191 36.0058 33.6413 35.1836 33.6413 34.1694C33.6413 33.1552 32.8191 32.333 31.8049 32.333C30.7907 32.333 29.9685 33.1552 29.9685 34.1694C29.9685 35.1836 30.7907 36.0058 31.8049 36.0058Z" fill="#EEEEEE"/>
<path d="M20.0461 34.7587L9.94763 28.9296C9.75357 28.8182 9.68889 28.5738 9.80029 28.3798L10.3717 27.3915C10.4831 27.1974 10.7275 27.1327 10.9215 27.2441L21.02 33.0732C21.214 33.1846 21.2787 33.429 21.1673 33.623L20.5959 34.6113C20.4845 34.8054 20.2365 34.8701 20.0461 34.7587Z" fill="#757575"/>
<path d="M17.2788 35.1649L9.53068 32.6816C9.49955 32.6713 9.46667 32.6674 9.43399 32.67C9.4013 32.6725 9.36946 32.6816 9.34033 32.6967C9.31121 32.7118 9.28539 32.7325 9.26438 32.7577C9.24338 32.7829 9.22762 32.812 9.21803 32.8433L9.09943 33.2099L8.82631 34.0652C8.76162 34.2629 8.87303 34.4713 9.06709 34.536L16.578 36.9438C16.7757 37.0085 16.9841 36.8971 17.0488 36.703L17.2357 36.1173L17.4405 35.4812C17.4509 35.4498 17.4549 35.4167 17.4523 35.3837C17.4498 35.3508 17.4407 35.3187 17.4257 35.2893C17.4106 35.2599 17.3899 35.2337 17.3647 35.2124C17.3395 35.191 17.3103 35.1749 17.2788 35.1649Z" fill="#757575"/>
</svg>
